<svg data-v-fde0c5aa="" xmlns="http://www.w3.org/2000/svg" viewBox="0 0 300 300" class="font"><!----><defs data-v-fde0c5aa=""><linearGradient data-v-fde0c5aa="" gradientTransform="rotate(25)" id="194cd614-98b5-40b7-80f2-bf458a98efa5" x1="0%" y1="0%" x2="100%" y2="0%"><stop data-v-fde0c5aa="" offset="0%" stop-color="#0076DD" stop-opacity="1"></stop><stop data-v-fde0c5aa="" offset="100%" stop-color="#00CDE9" stop-opacity="1"></stop></linearGradient></defs><rect data-v-fde0c5aa="" fill="url(#194cd614-98b5-40b7-80f2-bf458a98efa5)" x="0" y="0" width="300px" height="300px" class="logo-background-square"></rect><defs data-v-fde0c5aa=""><!----></defs><g data-v-fde0c5aa="" id="1da68873-b65b-428b-8961-5a076ca458d6" fill="#ffffff" transform="matrix(3.1437552078682844,0,0,3.1437552078682844,39.21406119803293,128.52815291963876)"><path d="M3.82 1.93L3.82 1.93Q5.87 1.93 6.41 3.21L6.41 3.21Q6.56 3.53 6.56 3.63L6.56 3.63L5.69 3.63L5.69 3.89L6.62 3.89L6.62 3.88Q6.62 3.81 6.56 3.63L6.56 3.63L8.13 3.63L8.13 3.89L6.64 3.89L6.64 3.91Q6.75 4.46 6.80 5.09L6.80 5.09Q6.80 5.13 5.00 5.22L5.00 5.22L5.00 5.21Q5.00 3.58 3.88 3.58L3.88 3.58L3.69 3.58Q2.85 3.58 2.67 4.29L2.67 4.29Q2.52 4.89 2.52 5.87L2.52 5.87L2.52 7.20L2.50 7.40L1.88 7.40L1.88 7.71L2.50 7.71L2.50 10.08L5.14 10.08L5.14 7.62L6.65 7.62L6.65 10.08L5.81 10.08L5.81 11.60L4.05 11.60L4.05 11.73L2.69 11.73L2.69 11.60L1.30 11.60L1.30 10.84L2.22 10.84L2.22 10.51L0.84 10.51L0.84 9.39L0.25 9.39L0.25 8.01L0.56 8.01Q0.54 7.15 0.54 6.66L0.54 6.66Q0.54 4.42 0.76 3.84L0.76 3.84Q0.96 3.17 1.42 2.69L1.42 2.69Q2.23 1.93 3.82 1.93ZM2.63 9.59L2.63 9.59L2.71 9.59L2.71 9.93L2.91 9.93L2.91 10.04L2.63 10.04Q2.60 10.04 2.60 10.00L2.60 10.00L2.60 9.63Q2.60 9.59 2.63 9.59ZM4.69 9.60L4.69 9.59L4.79 9.59Q4.87 9.66 4.87 9.72L4.87 9.72Q4.89 9.72 4.99 9.59L4.99 9.59L5.07 9.59L5.07 9.63Q4.96 9.78 4.96 9.84L4.96 9.84Q4.98 9.84 5.09 10.01L5.09 10.01L5.09 10.04L4.99 10.04L4.87 9.91Q4.81 10.02 4.78 10.04L4.78 10.04L4.68 10.04Q4.71 9.97 4.83 9.80L4.83 9.80L4.69 9.60ZM6.04 10.19L6.04 10.19Q6.21 10.23 6.21 10.28L6.21 10.28L6.21 10.35L6.14 10.35L6.08 10.28L6.01 10.28Q5.97 10.29 5.97 10.32L5.97 10.32L5.97 10.35Q6.23 10.40 6.23 10.46L6.23 10.46L6.23 10.51Q6.23 10.64 6.08 10.64L6.08 10.64L6.01 10.64Q5.92 10.64 5.87 10.55L5.87 10.55L5.87 10.48L5.96 10.48Q5.96 10.56 6.06 10.56L6.06 10.56L6.08 10.56Q6.10 10.56 6.13 10.51L6.13 10.51Q6.13 10.49 5.89 10.40L5.89 10.40L5.88 10.36L5.88 10.28Q5.88 10.23 6.04 10.19ZM7.40 6.64L7.40 1.96L9.34 1.96L9.34 5.85L11.29 5.85L11.29 1.96L12.93 1.96L12.93 7.51L12.26 7.51L12.26 7.75L12.93 7.75L12.93 11.73L11.32 11.73Q11.29 11.73 11.29 11.70L11.29 11.70L11.29 7.48L9.34 7.48L9.34 11.70Q9.34 11.73 9.30 11.73L9.30 11.73L7.68 11.73L7.68 6.64L7.40 6.64ZM12.93 7.75L12.93 7.51L13.80 7.51L13.80 7.75L12.93 7.75ZM14.43 6.80L14.43 2.00L19.22 2.00L19.22 3.60Q19.22 3.63 19.19 3.63L19.19 3.63L16.34 3.63L16.34 5.74L18.89 5.74L18.89 5.76Q18.89 5.84 18.87 6.79L18.87 6.79Q18.85 6.79 18.85 6.80L18.85 6.80L18.96 6.80L18.96 7.29L16.75 7.29L16.75 9.29L16.16 9.29L16.16 9.49L16.75 9.49L16.75 10.10L19.26 10.10L19.26 10.32L19.06 10.32L19.06 11.52L16.06 11.52L16.06 11.73L14.64 11.73L14.64 8.24L14.43 8.24L14.43 7.01L12.87 7.01L12.87 6.80L14.43 6.80ZM15.24 6.80L14.44 6.80L14.44 7.01L15.24 7.01L15.24 6.80ZM20.00 7.49L20.00 1.96L23.34 1.96Q25.03 1.96 25.52 3.14L25.52 3.14Q25.73 3.75 25.73 4.53L25.73 4.53L25.73 4.94Q25.73 6.36 25.11 7.11L25.11 7.11L24.40 7.11L24.40 7.47L25.48 7.47L25.48 9.81L24.84 9.81L24.84 10.17L25.81 10.17L25.81 11.55L23.78 11.55L23.78 9.34L22.99 9.34L22.99 7.92L21.62 7.92L21.62 10.34L21.92 10.34L21.92 11.73L20.03 11.73Q20.00 11.73 20.00 11.70L20.00 11.70L20.00 7.77L20.84 7.77L20.84 7.49L20.00 7.49ZM22.72 3.55L21.92 3.55L21.92 6.31L22.38 6.31Q23.43 6.31 23.59 6.11L23.59 6.11Q23.76 6.00 23.86 5.67L23.86 5.67L24.58 5.67L24.58 5.32L23.93 5.32L23.93 5.35Q23.87 5.67 23.84 5.67L23.84 5.67L22.91 5.67L22.91 5.32L23.89 5.32Q23.93 5.32 23.93 5.29L23.93 5.29Q23.94 4.87 23.94 4.81L23.94 4.81Q23.94 3.90 23.63 3.69L23.63 3.69Q23.38 3.55 22.72 3.55L22.72 3.55ZM26.06 7.49L26.06 1.96L29.41 1.96Q31.09 1.96 31.58 3.14L31.58 3.14Q31.79 3.75 31.79 4.53L31.79 4.53L31.79 4.94Q31.79 6.36 31.17 7.11L31.17 7.11L30.46 7.11L30.46 7.47L31.55 7.47L31.55 9.81L30.91 9.81L30.91 10.17L31.88 10.17L31.88 11.55L29.84 11.55L29.84 9.34L29.05 9.34L29.05 7.92L27.69 7.92L27.69 10.34L27.98 10.34L27.98 11.73L26.09 11.73Q26.06 11.73 26.06 11.70L26.06 11.70L26.06 7.77L26.90 7.77L26.90 7.49L26.06 7.49ZM28.79 3.55L27.98 3.55L27.98 6.31L28.44 6.31Q29.49 6.31 29.65 6.11L29.65 6.11Q29.83 6.00 29.92 5.67L29.92 5.67L30.65 5.67L30.65 5.32L29.99 5.32L29.99 5.35Q29.93 5.67 29.91 5.67L29.91 5.67L28.97 5.67L28.97 5.32L29.96 5.32Q29.99 5.32 29.99 5.29L29.99 5.29Q30.00 4.87 30.00 4.81L30.00 4.81Q30.00 3.90 29.69 3.69L29.69 3.69Q29.44 3.55 28.79 3.55L28.79 3.55ZM32.60 1.96L32.60 1.96L34.52 1.96Q34.52 3.37 35.01 4.35L35.01 4.35Q35.54 5.64 35.74 6.39L35.74 6.39L35.74 6.41L35.75 6.41Q36.00 5.50 36.77 3.62L36.77 3.62Q36.97 2.72 36.97 1.96L36.97 1.96L38.77 1.96Q38.61 3.43 38.36 4.13L38.36 4.13L37.28 6.59L36.62 6.59L36.62 8.28L35.62 8.28L35.62 8.61L36.62 8.61L36.62 11.73L34.75 11.73Q34.72 11.73 34.72 11.70L34.72 11.70L34.72 10.17L34.42 10.17L34.42 7.46L34.98 7.46L34.98 7.21L34.37 7.21Q34.30 7.12 33.24 4.67L33.24 4.67Q32.79 3.68 32.79 3.49L32.79 3.49L33.60 3.49L33.60 3.14L32.73 3.14Q32.60 2.06 32.60 1.96ZM31.43 3.49L31.43 3.14L32.73 3.14L32.78 3.49L31.43 3.49ZM36.62 8.61L36.62 8.28L37.43 8.28L37.43 8.61L36.62 8.61ZM42.74 9.37L42.74 1.93L44.93 1.93Q45.29 3.25 46.42 7.21L46.42 7.21L47.28 7.21Q47.31 7.21 47.56 6.26L47.56 6.26Q48.10 4.40 48.78 1.93L48.78 1.93L50.80 1.93L50.80 8.29L50.92 8.29L50.92 9.45L50.31 9.45L50.31 9.66L50.92 9.66L50.92 11.73L49.20 11.73L49.20 10.97L49.41 10.97L49.41 8.62L49.05 8.62L49.05 7.44L48.83 7.44L48.82 7.51L48.63 7.51L48.63 9.18L48.04 9.18L48.04 9.96L47.52 9.96L47.52 11.29L46.31 11.29L46.31 10.44L45.57 10.44L45.57 9.28L45.12 9.28L45.12 8.07L44.87 8.07Q44.86 7.97 44.71 7.44L44.71 7.44L46.44 7.44L46.40 7.21L44.66 7.21L44.71 7.44L44.47 7.44L44.47 8.96L44.59 8.96L44.59 10.64L44.16 10.64L44.16 10.94L44.59 10.94L44.59 11.38L43.03 11.38L43.03 9.37L42.74 9.37ZM44.47 6.51L44.46 6.51L44.46 6.63Q44.46 6.78 44.47 7.21L44.47 7.21L44.64 7.21Q44.47 6.55 44.47 6.51L44.47 6.51ZM49.06 6.53L49.05 6.53L48.90 7.21L49.05 7.21Q49.06 6.79 49.06 6.60L49.06 6.60L49.06 6.53ZM44.46 7.21L43.91 7.21L43.91 7.44L44.46 7.44L44.46 7.21ZM48.88 7.21L47.30 7.21L47.26 7.44L48.82 7.44Q48.88 7.26 48.88 7.21L48.88 7.21ZM50.26 7.21L49.06 7.21L49.06 7.44L50.26 7.44L50.26 7.21ZM47.22 7.44L46.48 7.44Q46.59 7.97 46.63 7.97L46.63 7.97L46.83 7.97L46.83 8.85L47.14 8.85L47.14 7.49L47.22 7.49L47.22 7.44ZM50.92 9.66L50.92 9.45L51.91 9.45L51.91 9.66L50.92 9.66ZM51.02 10.12L51.02 9.74L51.10 9.74L51.10 9.89L51.24 9.89L51.24 9.78Q51.24 9.74 51.27 9.74L51.27 9.74L51.30 9.74Q51.33 9.75 51.33 9.78L51.33 9.78L51.33 10.09Q51.33 10.12 51.30 10.12L51.30 10.12L51.24 10.12L51.24 9.97L51.10 9.97L51.10 10.12L51.02 10.12ZM51.02 10.62L51.02 10.24L51.25 10.24Q51.28 10.25 51.28 10.27L51.28 10.27L51.28 10.32L51.10 10.32L51.10 10.39L51.25 10.39L51.25 10.47L51.10 10.47L51.10 10.62L51.02 10.62ZM51.04 10.74L51.04 10.74L51.27 10.74Q51.30 10.74 51.30 10.77L51.30 10.77L51.30 10.80L51.12 11.03L51.30 11.03L51.30 11.12L51.02 11.12Q50.98 11.12 50.98 11.07L50.98 11.07Q51.04 10.99 51.17 10.82L51.17 10.82L51.00 10.82L51.00 10.77Q51.01 10.74 51.04 10.74ZM51.02 11.53L51.02 11.23L51.10 11.23L51.10 11.45L51.12 11.53L51.20 11.53Q51.24 11.53 51.24 11.50L51.24 11.50L51.24 11.27Q51.24 11.23 51.27 11.23L51.27 11.23L51.30 11.23Q51.33 11.24 51.33 11.27L51.33 11.27L51.33 11.46Q51.33 11.61 51.18 11.61L51.18 11.61L51.15 11.61Q51.06 11.61 51.02 11.53L51.02 11.53ZM42.59 11.61L42.59 11.46L44.34 11.46L44.34 11.61L42.59 11.61ZM51.86 6.33L51.86 1.94L53.74 1.94L53.74 7.12L52.86 7.12L52.86 7.39L53.74 7.39L53.74 8.36Q53.74 9.69 54.22 9.91L54.22 9.91Q54.46 10.06 54.81 10.06L54.81 10.06L55.39 10.06L55.39 8.34L55.90 8.34L55.90 1.94L57.78 1.94L57.78 7.96L57.10 7.96L57.10 8.39L57.78 8.39Q57.76 8.61 57.76 8.72L57.76 8.72L57.76 10.64L56.78 10.64L56.78 11.73L52.40 11.73L52.40 10.38L52.00 10.38L52.00 6.33L51.86 6.33ZM53.74 7.39L53.74 7.12L54.81 7.12L54.81 7.39L53.74 7.39ZM61.49 1.96L61.49 1.96Q63.12 1.96 63.67 3.01L63.67 3.01Q64.05 3.80 64.05 4.56L64.05 4.56L64.04 4.56Q62.92 4.66 62.51 4.66L62.51 4.66Q62.51 4.12 62.18 3.75L62.18 3.75Q61.87 3.57 61.60 3.57L61.60 3.57L61.33 3.57Q60.63 3.57 60.48 4.11L60.48 4.11Q60.44 4.27 60.44 4.35L60.44 4.35L60.44 4.50Q60.44 5.26 61.25 5.61L61.25 5.61Q61.32 5.67 62.37 6.12L62.37 6.12Q62.93 6.38 63.41 6.76L63.41 6.76L63.41 6.77L61.69 6.77L61.69 6.97L63.96 6.97L63.96 7.24L64.24 7.24L64.24 10.21L63.68 10.21L63.68 11.73L59.34 11.73L59.34 10.21L58.31 10.21L58.31 9.18L58.89 9.18L58.89 8.83L58.31 8.83L58.31 8.59L60.30 8.59L60.30 10.21L62.34 10.21L62.34 7.77L60.81 7.77L60.81 6.97L58.92 6.97L58.92 6.77L59.83 6.77L59.83 6.76Q58.63 5.96 58.63 4.50L58.63 4.50L58.63 4.37Q58.63 3.14 59.38 2.51L59.38 2.51Q60.07 1.96 61.49 1.96ZM63.96 6.97L63.96 6.77L64.65 6.77L64.65 6.97L63.96 6.97ZM57.65 9.18L57.65 8.83L58.31 8.83L58.31 9.18L57.65 9.18ZM65.40 6.80L65.40 2.00L70.19 2.00L70.19 3.60Q70.19 3.63 70.16 3.63L70.16 3.63L67.31 3.63L67.31 5.74L69.86 5.74L69.86 5.76Q69.86 5.84 69.84 6.79L69.84 6.79Q69.82 6.79 69.82 6.80L69.82 6.80L69.93 6.80L69.93 7.29L67.72 7.29L67.72 9.29L67.13 9.29L67.13 9.49L67.72 9.49L67.72 10.10L70.23 10.10L70.23 10.32L70.03 10.32L70.03 11.52L67.03 11.52L67.03 11.73L65.61 11.73L65.61 8.24L65.40 8.24L65.40 7.01L63.84 7.01L63.84 6.80L65.40 6.80ZM66.21 6.80L65.41 6.80L65.41 7.01L66.21 7.01L66.21 6.80Z"></path></g><!----><!----></svg>